<svg xmlns="http://www.w3.org/2000/svg" xmlns:xlink="http://www.w3.org/1999/xlink" width="40" zoomAndPan="magnify" viewBox="0 0 30 30.000001" height="40" preserveAspectRatio="xMidYMid meet" version="1.0"><defs><clipPath id="0f27953c86"><path d="M 5 7 L 25 7 L 25 22.96875 L 5 22.96875 Z M 5 7 " clip-rule="nonzero"/></clipPath><clipPath id="1e5dcb5c71"><path d="M 5 7 L 25.160156 7 L 25.160156 22.96875 L 5 22.96875 Z M 5 7 " clip-rule="nonzero"/></clipPath></defs><g clip-path="url(#0f27953c86)"><path fill="#ffffff" d="M 5.503906 13.667969 C 5.921875 16.433594 8.980469 17.511719 14.628906 17.910156 L 14.558594 17.800781 L 17.972656 22.945312 L 16.78125 17.800781 C 20.007812 17.867188 24.835938 17.402344 24.941406 13.242188 C 25.042969 9.269531 19.238281 6.277344 10.492188 7.902344 C 10.492188 7.902344 4.84375 9.304688 5.503906 13.667969 Z M 5.503906 13.667969 " fill-opacity="1" fill-rule="nonzero"/></g><g clip-path="url(#1e5dcb5c71)"><path fill="#000000" d="M 25.078125 12.410156 C 25.050781 12.242188 25.003906 12.078125 24.953125 11.914062 C 24.925781 11.832031 24.902344 11.75 24.867188 11.671875 L 24.820312 11.550781 L 24.769531 11.4375 C 24.75 11.398438 24.734375 11.359375 24.714844 11.320312 L 24.65625 11.207031 L 24.59375 11.09375 C 24.574219 11.058594 24.550781 11.023438 24.527344 10.984375 L 24.460938 10.878906 C 24.441406 10.84375 24.414062 10.808594 24.390625 10.773438 C 24.347656 10.703125 24.292969 10.636719 24.246094 10.566406 C 24.042969 10.296875 23.8125 10.050781 23.566406 9.828125 C 23.074219 9.375 22.519531 9.007812 21.9375 8.703125 C 21.378906 8.40625 20.789062 8.171875 20.1875 7.988281 C 19.890625 7.898438 19.585938 7.816406 19.28125 7.746094 C 18.976562 7.675781 18.667969 7.613281 18.359375 7.5625 C 17.277344 7.378906 16.183594 7.304688 15.089844 7.316406 C 14 7.328125 12.910156 7.421875 11.832031 7.589844 C 11.652344 7.617188 11.46875 7.648438 11.285156 7.679688 C 11.105469 7.714844 10.925781 7.75 10.742188 7.789062 C 10.648438 7.808594 10.523438 7.839844 10.5 7.890625 C 10.058594 7.996094 9.683594 8.121094 9.453125 8.199219 C 8.910156 8.382812 8.382812 8.621094 7.882812 8.914062 C 7.386719 9.207031 6.914062 9.558594 6.5 9.972656 C 6.144531 10.335938 5.839844 10.761719 5.625 11.230469 C 5.410156 11.703125 5.292969 12.21875 5.273438 12.734375 C 5.261719 12.992188 5.273438 13.25 5.304688 13.503906 L 5.332031 13.695312 L 5.367188 13.886719 C 5.378906 13.949219 5.398438 14.011719 5.414062 14.074219 L 5.449219 14.214844 L 5.464844 14.261719 L 5.527344 14.445312 C 5.550781 14.503906 5.578125 14.566406 5.601562 14.625 C 5.617188 14.652344 5.628906 14.683594 5.640625 14.714844 L 5.6875 14.800781 C 5.71875 14.855469 5.742188 14.917969 5.777344 14.972656 L 5.878906 15.136719 L 5.988281 15.296875 C 6.027344 15.347656 6.066406 15.398438 6.109375 15.449219 C 6.148438 15.496094 6.1875 15.550781 6.234375 15.59375 L 6.359375 15.730469 C 6.402344 15.773438 6.449219 15.816406 6.492188 15.855469 L 6.5625 15.921875 L 6.632812 15.976562 L 6.773438 16.09375 L 6.921875 16.203125 L 6.996094 16.253906 L 7.074219 16.304688 L 7.226562 16.402344 C 7.277344 16.433594 7.332031 16.460938 7.382812 16.492188 C 7.804688 16.726562 8.25 16.910156 8.703125 17.0625 C 9.097656 17.199219 9.5 17.308594 9.902344 17.402344 C 10.308594 17.496094 10.714844 17.574219 11.125 17.640625 L 11.429688 17.6875 L 11.738281 17.730469 C 11.941406 17.757812 12.148438 17.785156 12.351562 17.804688 C 12.761719 17.851562 13.175781 17.886719 13.585938 17.917969 C 13.863281 17.933594 14.144531 17.953125 14.421875 17.957031 C 14.449219 17.960938 14.476562 17.960938 14.507812 17.957031 C 14.628906 18.230469 14.816406 18.496094 14.886719 18.625 C 15.050781 18.914062 15.246094 19.183594 15.414062 19.472656 C 15.699219 19.972656 16.066406 20.414062 16.382812 20.894531 C 16.53125 21.128906 16.703125 21.347656 16.859375 21.570312 C 17.140625 21.96875 17.414062 22.367188 17.71875 22.746094 C 17.769531 22.8125 17.824219 22.875 17.878906 22.933594 C 17.894531 22.949219 17.921875 22.96875 17.96875 22.945312 C 17.976562 22.9375 17.984375 22.933594 17.988281 22.929688 C 18 22.933594 18.011719 22.933594 18.03125 22.929688 C 18.070312 22.917969 18.0625 22.90625 18.0625 22.890625 C 18.054688 22.617188 17.972656 22.316406 17.953125 22.183594 C 17.910156 21.902344 17.832031 21.628906 17.789062 21.347656 C 17.710938 20.863281 17.546875 20.398438 17.4375 19.917969 C 17.390625 19.6875 17.316406 19.460938 17.257812 19.234375 C 17.15625 18.832031 17.054688 18.429688 16.925781 18.035156 C 16.914062 17.992188 16.898438 17.949219 16.882812 17.90625 C 16.902344 17.910156 16.921875 17.910156 16.941406 17.910156 C 17.640625 17.949219 18.402344 17.941406 19.078125 17.886719 C 19.75 17.835938 20.335938 17.738281 20.683594 17.667969 C 21.421875 17.523438 22.15625 17.300781 22.835938 16.9375 C 23.175781 16.753906 23.5 16.535156 23.792969 16.277344 C 24.085938 16.019531 24.34375 15.714844 24.550781 15.378906 C 24.640625 15.234375 24.722656 15.082031 24.792969 14.921875 C 24.859375 14.765625 24.921875 14.605469 24.96875 14.441406 C 24.992188 14.359375 25.011719 14.273438 25.03125 14.191406 C 25.046875 14.109375 25.066406 14.023438 25.082031 13.941406 C 25.109375 13.773438 25.125 13.601562 25.136719 13.433594 C 25.15625 13.097656 25.144531 12.746094 25.078125 12.410156 Z M 24.617188 14.535156 C 24.546875 14.753906 24.453125 14.964844 24.339844 15.164062 C 24.226562 15.363281 24.097656 15.550781 23.949219 15.726562 C 23.652344 16.078125 23.289062 16.367188 22.894531 16.605469 C 22.519531 16.835938 22.117188 17.015625 21.703125 17.160156 C 21.289062 17.304688 20.859375 17.414062 20.429688 17.503906 C 19.5625 17.675781 18.679688 17.75 17.796875 17.78125 C 17.515625 17.789062 17.234375 17.800781 16.957031 17.804688 C 16.914062 17.808594 16.875 17.808594 16.84375 17.816406 C 16.832031 17.804688 16.816406 17.796875 16.785156 17.800781 C 16.734375 17.808594 16.734375 17.835938 16.730469 17.851562 C 16.71875 17.917969 16.765625 18.539062 16.8125 18.777344 C 16.875 19.0625 16.945312 19.34375 17.023438 19.625 C 17.125 20 17.222656 20.382812 17.335938 20.757812 C 17.441406 21.097656 17.523438 21.445312 17.628906 21.785156 C 17.691406 21.988281 17.75 22.195312 17.804688 22.398438 C 17.714844 22.203125 17.609375 21.996094 17.535156 21.882812 C 17.355469 21.597656 17.160156 21.320312 16.960938 21.042969 C 16.691406 20.671875 16.433594 20.296875 16.152344 19.933594 C 15.894531 19.605469 15.664062 19.257812 15.410156 18.925781 C 15.167969 18.613281 14.9375 18.292969 14.703125 17.976562 C 14.679688 17.945312 14.652344 17.914062 14.625 17.882812 C 14.621094 17.882812 14.621094 17.882812 14.617188 17.878906 C 14.605469 17.863281 14.589844 17.847656 14.578125 17.835938 C 14.5625 17.820312 14.535156 17.8125 14.496094 17.839844 C 14.492188 17.839844 14.484375 17.839844 14.480469 17.839844 C 14.363281 17.816406 13.695312 17.734375 12.945312 17.625 C 12.851562 17.609375 12.753906 17.597656 12.660156 17.582031 C 12.5625 17.566406 12.464844 17.550781 12.371094 17.539062 C 12.179688 17.507812 11.988281 17.472656 11.808594 17.445312 C 11.625 17.410156 11.453125 17.378906 11.296875 17.351562 C 11.140625 17.320312 10.996094 17.292969 10.878906 17.273438 C 10.316406 17.164062 9.761719 17.035156 9.21875 16.875 C 8.671875 16.714844 8.140625 16.511719 7.644531 16.253906 C 7.308594 16.074219 6.996094 15.863281 6.714844 15.613281 C 6.4375 15.359375 6.195312 15.070312 6.019531 14.742188 C 5.839844 14.414062 5.71875 14.054688 5.652344 13.679688 C 5.585938 13.304688 5.566406 12.917969 5.597656 12.539062 C 5.613281 12.367188 5.640625 12.195312 5.675781 12.023438 C 5.714844 11.855469 5.765625 11.6875 5.828125 11.527344 C 5.953125 11.203125 6.121094 10.894531 6.328125 10.613281 C 6.535156 10.332031 6.773438 10.074219 7.035156 9.839844 C 7.296875 9.605469 7.578125 9.394531 7.875 9.207031 C 8.433594 8.84375 9.042969 8.558594 9.671875 8.335938 C 10.304688 8.109375 10.957031 7.941406 11.617188 7.84375 C 11.828125 7.816406 12.039062 7.785156 12.25 7.769531 C 12.285156 7.765625 12.316406 7.761719 12.34375 7.753906 C 12.46875 7.742188 12.601562 7.730469 12.734375 7.722656 C 13.234375 7.683594 13.761719 7.660156 14.25 7.652344 C 14.734375 7.644531 15.171875 7.648438 15.492188 7.65625 C 16.996094 7.691406 18.503906 7.863281 19.945312 8.285156 C 20.429688 8.429688 20.90625 8.601562 21.363281 8.808594 C 21.59375 8.914062 21.820312 9.027344 22.039062 9.152344 C 22.257812 9.273438 22.472656 9.410156 22.679688 9.550781 C 23.09375 9.839844 23.472656 10.171875 23.800781 10.554688 C 24.128906 10.933594 24.398438 11.363281 24.578125 11.832031 C 24.742188 12.257812 24.828125 12.714844 24.828125 13.175781 C 24.824219 13.636719 24.761719 14.097656 24.617188 14.535156 Z M 24.617188 14.535156 " fill-opacity="1" fill-rule="nonzero"/></g></svg>